<svg width="28" height="28" viewBox="0 0 28 28" fill="none" xmlns="http://www.w3.org/2000/svg">
<path d="M11.0832 19.2506V8.75059L19.2498 14.0006L11.0832 19.2506ZM13.9998 26.8339C11.8998 26.8339 9.93128 26.3529 8.09417 25.3908C6.25706 24.4286 4.72562 23.0819 3.49984 21.3506V24.5006H1.1665V17.5006H8.1665V19.8339H5.30817C6.29984 21.2923 7.55906 22.4348 9.08584 23.2616C10.6126 24.0884 12.2506 24.5014 13.9998 24.5006C16.2359 24.5006 18.2632 23.8589 20.0817 22.5756C21.9001 21.2923 23.1784 19.5909 23.9165 17.4714L26.1915 17.9964C25.3165 20.6409 23.761 22.7751 21.5248 24.3991C19.2887 26.0231 16.7804 26.8347 13.9998 26.8339ZM1.22484 12.8339C1.36095 11.5311 1.67206 10.2816 2.15817 9.08542C2.64428 7.8892 3.31512 6.78592 4.17067 5.77559L5.83317 7.43809C5.21095 8.23531 4.70539 9.0862 4.3165 9.99075C3.92762 10.8953 3.68456 11.843 3.58734 12.8339H1.22484ZM7.4665 5.80475L5.804 4.14225C6.83456 3.2867 7.94289 2.6112 9.129 2.11575C10.3151 1.62031 11.5498 1.32359 12.8332 1.22559V3.55892C11.8415 3.65614 10.8984 3.8992 10.004 4.28809C9.10956 4.67698 8.26373 5.18253 7.4665 5.80475ZM20.5623 5.80475C19.7651 5.18253 18.9146 4.67698 18.0108 4.28809C17.1071 3.8992 16.1589 3.65614 15.1665 3.55892V1.22559C16.4693 1.34225 17.7188 1.64364 18.915 2.12975C20.1112 2.61586 21.2145 3.2867 22.2248 4.14225L20.5623 5.80475ZM24.4415 12.8339C24.3443 11.8423 24.1012 10.8945 23.7123 9.99075C23.3235 9.08697 22.8179 8.23609 22.1957 7.43809L23.8582 5.77559C24.7137 6.7867 25.3846 7.89036 25.8707 9.08659C26.3568 10.2828 26.6582 11.5319 26.7748 12.8339H24.4415Z" fill="#F9F8FE"/>
</svg>
