<svg width="32" height="32" viewBox="0 0 32 32" fill="none" xmlns="http://www.w3.org/2000/svg">
<path d="M16.8367 10.5669L16.7633 10.5225C15.9322 10.0169 15.2011 9.57139 14.5744 9.34694C14.229 9.21417 13.8597 9.15476 13.49 9.1725C13.1009 9.2022 12.7289 9.34511 12.42 9.58361C11.7767 10.0658 11.4989 10.7758 11.3467 11.5614C11.1989 12.3225 11.1422 13.3136 11.0722 14.5203L11.0689 14.5825C11.0267 15.3047 11 16.0192 11 16.6669C11 17.3147 11.0267 18.0303 11.0689 18.7525L11.0722 18.8136C11.1422 20.0203 11.1989 21.0114 11.3467 21.7714C11.4989 22.5581 11.7767 23.2669 12.42 23.7503C12.7378 23.9892 13.0944 24.1314 13.49 24.1614C13.87 24.1892 14.2344 24.1092 14.5744 23.9869C15.2011 23.7625 15.9322 23.3169 16.7633 22.8125L16.8367 22.7681C17.31 22.4792 17.7744 22.1825 18.1889 21.8903C18.6964 21.5292 19.1912 21.1504 19.6722 20.7547L19.7278 20.7092C20.5767 20.0169 21.2967 19.4292 21.7944 18.8514C22.3367 18.2181 22.6667 17.5381 22.6667 16.6669C22.6667 15.7958 22.3367 15.1147 21.7933 14.4825C21.2967 13.9047 20.5767 13.3158 19.7289 12.6247L19.6733 12.5792C19.1689 12.1681 18.6622 11.7747 18.1889 11.4436C17.7475 11.1369 17.2965 10.8441 16.8367 10.5658" fill="#F9F8FE"/>
</svg>
