<svg width="16" height="16" viewBox="0 0 16 16" fill="none" xmlns="http://www.w3.org/2000/svg">
<path d="M6.47799 13.666L11.66 8.35C11.751 8.25662 11.8019 8.13139 11.8019 8.001C11.8019 7.87061 11.751 7.74537 11.66 7.652L6.47799 2.334C6.43559 2.29046 6.3849 2.25585 6.32891 2.23222C6.27292 2.20858 6.21276 2.19641 6.15199 2.19641C6.09122 2.19641 6.03106 2.20858 5.97507 2.23222C5.91907 2.25585 5.86839 2.29046 5.82599 2.334C5.73876 2.42329 5.68992 2.54317 5.68992 2.668C5.68992 2.79283 5.73876 2.91271 5.82599 3.002L10.699 8.001L5.82599 12.999C5.73906 13.0882 5.69041 13.2079 5.69041 13.3325C5.69041 13.4571 5.73906 13.5768 5.82599 13.666C5.86839 13.7095 5.91908 13.7442 5.97507 13.7678C6.03106 13.7914 6.09122 13.8036 6.15199 13.8036C6.21276 13.8036 6.27292 13.7914 6.32891 13.7678C6.3849 13.7442 6.43559 13.7095 6.47799 13.666Z" fill="#F9F8FE"/>
</svg>
