<svg width="17" height="16" viewBox="0 0 17 16" fill="none" xmlns="http://www.w3.org/2000/svg">
<rect x="0.5" width="16" height="16" rx="4" fill="#445CFF" fill-opacity="0.2"/>
<path d="M14.1252 9.06266H8.67008L3.23258 2.66539C3.15208 2.5706 3.03722 2.51166 2.91327 2.50155C2.78932 2.49144 2.66643 2.53099 2.57164 2.61148C2.47685 2.69198 2.41791 2.80684 2.4078 2.93079C2.39769 3.05474 2.43724 3.17763 2.51773 3.27242L10.3464 12.4822C10.4344 12.5857 10.5439 12.6689 10.6672 12.726C10.7905 12.7831 10.9248 12.8126 11.0607 12.8127H14.1252C14.3738 12.8127 14.6123 12.7139 14.7881 12.5381C14.9639 12.3623 15.0627 12.1238 15.0627 11.8752V10.0002C15.0627 9.75152 14.9639 9.51306 14.7881 9.33724C14.6123 9.16143 14.3738 9.06266 14.1252 9.06266ZM9.46695 10.0002H12.2502V11.8752H11.0607L9.46695 10.0002ZM14.1252 11.8752H13.1877V10.0002H14.1252V11.8752Z" fill="#445CFF"/>
<path d="M13.8459 2.66539L9.86148 7.35289C9.78099 7.44769 9.74144 7.57057 9.75155 7.69452C9.76166 7.81847 9.8206 7.93333 9.91539 8.01383C10.0102 8.09433 10.1331 8.13387 10.257 8.12376C10.3184 8.11875 10.3782 8.10171 10.433 8.0736C10.4878 8.04549 10.5365 8.00686 10.5763 7.95992L14.5607 3.27242C14.6412 3.17763 14.6807 3.05474 14.6706 2.93079C14.6605 2.80684 14.6016 2.69198 14.5068 2.61148C14.412 2.53099 14.2891 2.49144 14.1652 2.50155C14.0412 2.51166 13.9264 2.5706 13.8459 2.66539Z" fill="#445CFF"/>
<path d="M7.26055 10.3643C7.1658 10.2839 7.04303 10.2444 6.91922 10.2546C6.7954 10.2647 6.68065 10.3235 6.6002 10.4182L5.62695 11.5625H4.4375V9.6875H5.67969C5.80401 9.6875 5.92324 9.63811 6.01114 9.55021C6.09905 9.4623 6.14844 9.34307 6.14844 9.21875C6.14844 9.09443 6.09905 8.9752 6.01114 8.88729C5.92324 8.79939 5.80401 8.75 5.67969 8.75H2.5625C2.31386 8.75 2.0754 8.84877 1.89959 9.02459C1.72377 9.2004 1.625 9.43886 1.625 9.6875V11.5625C1.625 11.8111 1.72377 12.0496 1.89959 12.2254C2.0754 12.4012 2.31386 12.5 2.5625 12.5H5.62695C5.76285 12.5 5.89711 12.4704 6.02044 12.4133C6.14377 12.3563 6.25322 12.2731 6.34121 12.1695L7.31445 11.0252C7.35433 10.9783 7.38457 10.9239 7.40344 10.8653C7.42232 10.8067 7.42946 10.7449 7.42445 10.6836C7.41944 10.6222 7.40239 10.5624 7.37427 10.5076C7.34614 10.4528 7.3075 10.4041 7.26055 10.3643ZM2.5625 9.6875H3.5V11.5625H2.5625V9.6875Z" fill="#445CFF"/>
</svg>
