<svg width="16" height="17" viewBox="0 0 16 17" fill="none" xmlns="http://www.w3.org/2000/svg">
<rect y="0.5" width="16" height="16" rx="4" fill="#A1FF4A" fill-opacity="0.2"/>
<path d="M13.4545 9.04657H12.9091C12.9091 6.93566 11.2018 5.22839 9.09091 5.22839H8.54545V4.53566C8.71133 4.43989 8.84908 4.30213 8.94483 4.13624C9.04057 3.97035 9.09096 3.78217 9.09091 3.59063C9.09086 3.39909 9.04038 3.21093 8.94454 3.04509C8.84871 2.87925 8.7109 2.74156 8.54497 2.64587C8.37904 2.55019 8.19084 2.49988 7.9993 2.5C7.80776 2.50012 7.61963 2.55068 7.45382 2.64657C7.28801 2.74247 7.15038 2.88034 7.05476 3.0463C6.95913 3.21227 6.90889 3.40049 6.90909 3.59203C6.90909 3.99566 7.12727 4.35021 7.45455 4.53566V5.22839H6.90909C4.79818 5.22839 3.09091 6.93566 3.09091 9.04657H2.54545C2.24545 9.04657 2 9.29203 2 9.59203V11.2284C2 11.5284 2.24545 11.7738 2.54545 11.7738H3.09091V12.3193C3.09091 12.6086 3.20584 12.8861 3.41043 13.0907C3.61501 13.2953 3.89249 13.4102 4.18182 13.4102H11.8182C12.4236 13.4102 12.9091 12.9248 12.9091 12.3193V11.7738H13.4545C13.7545 11.7738 14 11.5284 14 11.2284V9.59203C14 9.29203 13.7545 9.04657 13.4545 9.04657ZM6.83273 10.5084L6.18909 11.152L5.54545 10.5084L4.90182 11.152L4.25818 10.5084L4.90182 9.86476L4.25818 9.22112L4.90182 8.57748L5.54545 9.22112L6.18909 8.57748L6.83273 9.22112L6.18909 9.86476L6.83273 10.5084ZM11.7418 10.5084L11.0982 11.152L10.4545 10.5084L9.81091 11.152L9.16727 10.5084L9.81091 9.86476L9.16727 9.22112L9.81091 8.57748L10.4545 9.22112L11.0982 8.57748L11.7418 9.22112L11.0982 9.86476L11.7418 10.5084Z" fill="#A1FF4A"/>
</svg>
