<svg width="28" height="28" viewBox="0 0 28 28" fill="none" xmlns="http://www.w3.org/2000/svg">
<path d="M24.5003 16.9169H14.3175L4.16748 4.97536C4.01722 4.79841 3.80282 4.6884 3.57144 4.66952C3.34007 4.65065 3.11068 4.72447 2.93373 4.87473C2.75678 5.02499 2.64677 5.23939 2.6279 5.47077C2.60903 5.70214 2.68284 5.93153 2.8331 6.10848L17.4467 23.3C17.6109 23.4934 17.8153 23.6486 18.0455 23.7552C18.2757 23.8617 18.5263 23.9169 18.78 23.9169H24.5003C24.9644 23.9169 25.4095 23.7325 25.7377 23.4044C26.0659 23.0762 26.2503 22.631 26.2503 22.1669V18.6669C26.2503 18.2028 26.0659 17.7577 25.7377 17.4295C25.4095 17.1013 24.9644 16.9169 24.5003 16.9169ZM15.805 18.6669H21.0003V22.1669H18.78L15.805 18.6669ZM24.5003 22.1669H22.7503V18.6669H24.5003V22.1669Z" fill="#F9F8FE"/>
<path opacity="0.3" d="M23.9789 4.97536L16.5414 13.7254C16.3912 13.9023 16.3173 14.1317 16.3362 14.3631C16.3551 14.5944 16.4651 14.8088 16.642 14.9591C16.819 15.1094 17.0484 15.1832 17.2798 15.1643C17.3943 15.155 17.5059 15.1232 17.6082 15.0707C17.7105 15.0182 17.8014 14.9461 17.8758 14.8585L25.3133 6.10848C25.4636 5.93153 25.5374 5.70214 25.5185 5.47077C25.4996 5.23939 25.3896 5.02499 25.2127 4.87473C25.0357 4.72447 24.8063 4.65065 24.575 4.66952C24.3436 4.6884 24.1292 4.79841 23.9789 4.97536Z" fill="#F9F8FE"/>
<g opacity="0.3">
<path d="M11.6864 19.3467C11.5095 19.1967 11.2804 19.123 11.0492 19.1419C10.8181 19.1607 10.6039 19.2706 10.4537 19.4473L8.637 21.5834H6.41669V18.0834H8.73544C8.9675 18.0834 9.19006 17.9912 9.35416 17.8271C9.51825 17.663 9.61044 17.4404 9.61044 17.2084C9.61044 16.9763 9.51825 16.7537 9.35416 16.5897C9.19006 16.4256 8.9675 16.3334 8.73544 16.3334H2.91669C2.45256 16.3334 2.00744 16.5177 1.67925 16.8459C1.35106 17.1741 1.16669 17.6192 1.16669 18.0834V21.5834C1.16669 22.0475 1.35106 22.4926 1.67925 22.8208C2.00744 23.149 2.45256 23.3334 2.91669 23.3334H8.637C8.89066 23.3333 9.14129 23.2781 9.3715 23.1716C9.60172 23.0651 9.80603 22.9098 9.97028 22.7165L11.787 20.5804C11.8614 20.4928 11.9179 20.3914 11.9531 20.282C11.9883 20.1725 12.0017 20.0573 11.9923 19.9427C11.983 19.8281 11.9511 19.7165 11.8987 19.6142C11.8462 19.512 11.774 19.421 11.6864 19.3467ZM2.91669 18.0834H4.66669V21.5834H2.91669V18.0834Z" fill="#F9F8FE"/>
</g>
</svg>
