<svg width="28" height="28" viewBox="0 0 28 28" fill="none" xmlns="http://www.w3.org/2000/svg">
<path opacity="0.3" d="M12.7099 25.6667H15.2906C19.3121 25.6667 21.3223 25.6667 22.6931 24.486C24.0639 23.3054 24.3486 21.3302 24.9168 17.3775L25.2423 15.1177C25.6856 12.0412 25.9073 10.5024 25.2761 9.18754C24.6449 7.87271 23.3033 7.07237 20.6188 5.47404L19.0029 4.51154C16.5669 3.05904 15.3466 2.33337 14.0003 2.33337C12.6539 2.33337 11.4348 3.05904 8.99759 4.51154L7.38175 5.47404C4.69842 7.07237 3.35559 7.87271 2.72442 9.18754C2.09325 10.5024 2.31609 12.0412 2.75942 15.1177L3.08375 17.3775C3.65192 21.3302 3.93659 23.3054 5.30742 24.486C6.67825 25.6667 8.68842 25.6667 12.7099 25.6667Z" fill="#445CFF"/>
<path d="M11.0217 17.9635C10.8353 17.8252 10.6016 17.7666 10.372 17.8006C10.1423 17.8346 9.93564 17.9585 9.79733 18.1449C9.65902 18.3313 9.60043 18.565 9.63446 18.7947C9.66848 19.0243 9.79232 19.231 9.97875 19.3693C11.1401 20.2371 12.5505 20.7069 14.0002 20.7086C15.45 20.7069 16.8604 20.2371 18.0217 19.3693C18.2082 19.231 18.332 19.0243 18.366 18.7947C18.4001 18.565 18.3415 18.3313 18.2032 18.1449C18.0649 17.9585 17.8582 17.8346 17.6285 17.8006C17.3989 17.7666 17.1652 17.8252 16.9787 17.9635C16.1192 18.6076 15.0744 18.9567 14.0002 18.9586C12.9261 18.9567 11.8813 18.6076 11.0217 17.9635Z" fill="#445CFF"/>
</svg>
