<svg width="28" height="28" viewBox="0 0 28 28" fill="none" xmlns="http://www.w3.org/2000/svg">
<path opacity="0.3" d="M2.33334 14C2.33334 17.0942 3.56251 20.0617 5.75043 22.2496C7.93836 24.4375 10.9058 25.6667 14 25.6667C17.0942 25.6667 20.0617 24.4375 22.2496 22.2496C24.4375 20.0617 25.6667 17.0942 25.6667 14C25.6667 9.21671 25.2 6.30004 23.45 4.55004C21.7 2.80004 18.7833 2.33337 14 2.33337C9.21668 2.33337 6.30001 2.80004 4.55001 4.55004C2.80001 6.30004 2.33334 9.21671 2.33334 14ZM14 7.00004H14.0117H14Z" fill="#F9F8FE"/>
<path d="M9.33318 14.5832C10.6218 14.5832 11.6665 13.5385 11.6665 12.2498C11.6665 10.9612 10.6218 9.9165 9.33318 9.9165C8.04452 9.9165 6.99985 10.9612 6.99985 12.2498C6.99985 13.5385 8.04452 14.5832 9.33318 14.5832Z" fill="#F9F8FE"/>
<path d="M18.6665 14.5832C19.9552 14.5832 20.9999 13.5385 20.9999 12.2498C20.9999 10.9612 19.9552 9.9165 18.6665 9.9165C17.3779 9.9165 16.3332 10.9612 16.3332 12.2498C16.3332 13.5385 17.3779 14.5832 18.6665 14.5832Z" fill="#F9F8FE"/>
<path d="M9.9165 19.8332H9.92817H9.9165ZM13.9998 17.4999H14.0115H13.9998ZM18.0832 19.8332H18.0948H18.0832Z" fill="#F9F8FE"/>
<path d="M9.9165 19.8332H9.92817M13.9998 17.4999H14.0115M18.0832 19.8332H18.0948" stroke="#F9F8FE" stroke-width="1.75" stroke-linecap="round" stroke-linejoin="round"/>
</svg>
